<svg width="24" height="24" viewBox="0 0 24 24" fill="none" xmlns="http://www.w3.org/2000/svg">
    <g clip-path="url(#clip0_51835_11424)">
        <path
            d="M12.0004 21.9999L2.80843 12.8079C0.62843 10.2399 0.74243 6.3879 3.16143 3.9679C4.32144 2.80791 5.87717 2.12945 7.51654 2.06861C9.1559 2.00778 10.7576 2.56908 12.0004 3.6399C13.242 2.56908 14.8423 2.00699 16.4808 2.06627C18.1192 2.12554 19.6748 2.80181 20.8357 3.95956C21.9966 5.1173 22.6771 6.67099 22.7408 8.30929C22.8046 9.94758 22.2469 11.5494 21.1794 12.7939L12.0004 21.9999ZM19.6624 11.4909C20.4013 10.6293 20.7872 9.52034 20.743 8.3862C20.6988 7.25206 20.2276 6.17653 19.4239 5.3751C18.6202 4.57367 17.5433 4.10555 16.4091 4.06453C15.2748 4.02351 14.1669 4.41262 13.3074 5.1539L12.0004 6.2819L10.6934 5.1539C9.83393 4.41262 8.72607 4.02351 7.59181 4.06453C6.45755 4.10555 5.38068 4.57367 4.57698 5.3751C3.77328 6.17653 3.3021 7.25206 3.25786 8.3862C3.21363 9.52034 3.59959 10.6293 4.33843 11.4909L4.45243 11.6229L12.0004 19.1719L19.5484 11.6229L19.6624 11.4909Z"
            fill="#999999" />
    </g>
    <defs>
        <clipPath id="clip0_51835_11424">
            <rect width="24" height="24" fill="white" />
        </clipPath>
    </defs>
</svg>
    